<svg width="69" height="70" viewBox="0 0 69 70" fill="none" xmlns="http://www.w3.org/2000/svg">
<path fill-rule="evenodd" clip-rule="evenodd" d="M52.5 67.271C60.8839 67.271 66.5 60.2848 66.5 53.271L66.5 1.27103C66.5 0.718742 66.9477 0.271027 67.5 0.271027C68.0523 0.271027 68.5 0.718742 68.5 1.27103L68.5 53.271C68.5 61.2572 62.1162 69.271 52.5 69.271L1.00038 69.271C1.00011 69.271 0.999985 69.271 0.999985 68.271C0.999985 67.271 1.00012 67.271 1.00039 67.271L52.5 67.271ZM-1.52588e-05 68.271C-1.52588e-05 67.7187 0.448105 67.271 1.00039 67.271L0.999985 68.271L1.00038 69.271C0.448097 69.271 -1.52588e-05 68.8233 -1.52588e-05 68.271Z" fill="#589AD8"/>
</svg>
