<svg width="52" height="52" viewBox="0 0 52 52" fill="none" xmlns="http://www.w3.org/2000/svg">
<path fill-rule="evenodd" clip-rule="evenodd" d="M36.8333 5.95857C35.2652 5.95806 33.7229 6.35801 32.3527 7.12051C30.9825 7.88301 29.8296 8.98279 29.0035 10.3156C28.1774 11.6485 27.7053 13.1702 27.632 14.7366C27.5587 16.3029 27.8867 17.8621 28.5848 19.2662C28.9314 19.9596 29.0723 20.8046 28.8448 21.6539L28.2966 23.7036L30.3463 23.1554C31.1472 22.9483 31.9963 23.0407 32.7339 23.4154C33.977 24.0323 35.3434 24.3602 36.7311 24.3747C38.1187 24.3892 39.4917 24.0899 40.7474 23.4991C42.0031 22.9084 43.109 22.0414 43.9825 20.9631C44.856 19.8848 45.4745 18.623 45.7918 17.272C46.109 15.921 46.1168 14.5158 45.8146 13.1614C45.5123 11.807 44.9079 10.5384 44.0464 9.45046C43.1849 8.36251 42.0887 7.48335 40.8396 6.87868C39.5906 6.27401 38.221 5.95947 36.8333 5.95857ZM24.3749 15.1669C24.3755 12.4577 25.2593 9.82247 26.8923 7.66066C28.5252 5.49886 30.8184 3.92827 33.4242 3.18693C36.03 2.44558 38.8065 2.57388 41.3329 3.55238C43.8592 4.53088 45.9978 6.30624 47.4244 8.60943C48.851 10.9126 49.488 13.6181 49.2388 16.3158C48.9895 19.0136 47.8677 21.5566 46.0433 23.5594C44.2188 25.5622 41.7912 26.9158 39.1284 27.4149C36.4655 27.914 33.7125 27.5314 31.2866 26.3252C31.2595 26.3111 31.2302 26.3015 31.1999 26.2971H31.1848L28.7754 26.9406C28.2612 27.0784 27.7197 27.0785 27.2055 26.9409C26.6912 26.8032 26.2222 26.5326 25.8456 26.1562C25.4691 25.7799 25.1982 25.3111 25.0602 24.7969C24.9222 24.2827 24.922 23.7412 25.0596 23.2269L25.7053 20.8154V20.8002C25.7001 20.7698 25.6899 20.7405 25.6749 20.7136C24.8175 18.9904 24.3725 17.0916 24.3749 15.1669ZM8.05559 8.86623C10.7119 6.07123 15.1059 6.5934 17.3029 9.7004L20.0329 13.5636C21.7901 16.0487 21.6428 19.5002 19.5454 21.7102L19.0146 22.2671C19.0146 22.2714 19.0146 22.2757 19.0103 22.2801C18.9821 22.3602 18.9128 22.6094 18.9821 23.0861C19.1273 24.0741 19.8878 26.0782 22.9818 29.3347C26.0844 32.6021 27.9651 33.3734 28.8383 33.5142C29.0486 33.5614 29.2674 33.5562 29.4753 33.4991L30.3593 32.5674C32.2529 30.5741 35.2039 30.1819 37.5851 31.5512L41.7234 33.9346C45.2616 35.9712 46.0849 40.9524 43.2574 43.9294L40.1808 47.1686C39.2209 48.1804 37.9101 49.0449 36.2916 49.2052C32.3396 49.5952 23.1854 49.0861 13.5893 38.9829C4.63226 29.5536 2.93142 21.3527 2.71692 17.3466C2.61075 15.3662 3.49259 13.6697 4.65392 12.4477L8.05559 8.86623ZM14.6488 11.5746C13.5394 10.0059 11.5439 9.91273 10.4108 11.1044L7.00909 14.6859C6.29409 15.4421 5.91492 16.3066 5.96259 17.1732C6.13592 20.4449 7.54642 27.9026 15.9444 36.7447C24.7498 46.0159 32.8639 46.2781 35.9731 45.9704C36.5863 45.9097 37.2189 45.5674 37.8234 44.9304L40.9001 41.6912C42.2304 40.2937 41.8816 37.7739 40.1028 36.7512L35.9644 34.3679C34.8529 33.7287 33.5508 33.9259 32.7166 34.8056L31.7308 35.8456L30.5521 34.7254C31.7286 35.8456 31.7286 35.8456 31.7264 35.8477L31.7243 35.8521L31.7178 35.8586L31.7026 35.8716L31.6723 35.9019C31.5813 35.9913 31.4827 36.0725 31.3776 36.1446C31.2043 36.2681 30.9746 36.4046 30.6821 36.5172C30.0841 36.7556 29.2954 36.8812 28.3183 36.7231C26.4159 36.4132 23.9243 35.0482 20.6266 31.5729C17.3159 28.0889 16.0484 25.4911 15.7668 23.5562C15.6316 22.7646 15.6941 21.9519 15.9488 21.1902C16.0666 20.8582 16.2347 20.5462 16.4471 20.2651L16.5121 20.1849L16.5424 20.1524L16.5554 20.1394L16.5619 20.1329L16.5663 20.1286C16.5663 20.1286 16.5684 20.1264 17.7471 21.2444L16.5684 20.1264L17.1903 19.4721C18.1544 18.4537 18.2953 16.7334 17.3809 15.4421L14.6488 11.5746Z" fill="#589AD8"/>
</svg>
