<svg width="73" height="73" viewBox="0 0 73 73" fill="none" xmlns="http://www.w3.org/2000/svg">
<g clip-path="url(#clip0_34_21)">
<path d="M11.4062 7.98438V60.4531C11.4062 61.0827 11.9173 61.5938 12.5469 61.5938H27.01C27.9175 61.5938 28.7879 61.9543 29.4296 62.596C30.0714 63.2377 30.4319 64.1081 30.4319 65.0156C30.4319 65.9232 30.0714 66.7935 29.4296 67.4353C28.7879 68.077 27.9175 68.4375 27.01 68.4375H12.5469C10.4293 68.4375 8.39843 67.5963 6.90107 66.0989C5.40371 64.6016 4.5625 62.5707 4.5625 60.4531V7.98438C4.5625 3.577 8.1395 0 12.5469 0H51.3281C55.7355 0 59.3125 3.577 59.3125 7.98438V43.2799C59.3125 44.1874 58.952 45.0578 58.3103 45.6995C57.6685 46.3412 56.7982 46.7018 55.8906 46.7018C54.9831 46.7018 54.1127 46.3412 53.471 45.6995C52.8293 45.0578 52.4688 44.1874 52.4688 43.2799V7.98438C52.4688 7.68186 52.3486 7.39174 52.1347 7.17783C51.9208 6.96392 51.6306 6.84375 51.3281 6.84375H12.5469C12.2444 6.84375 11.9542 6.96392 11.7403 7.17783C11.5264 7.39174 11.4062 7.68186 11.4062 7.98438ZM71.9689 51.4969L51.1776 71.8001C50.5321 72.4291 49.6646 72.7781 48.7633 72.7713C47.8621 72.7644 47 72.4023 46.3641 71.7636L37.4992 62.8667C36.8959 62.2169 36.5684 61.3583 36.5857 60.4718C36.603 59.5853 36.9637 58.7401 37.5919 58.1143C38.22 57.4885 39.0666 57.131 39.9531 57.1171C40.8397 57.1031 41.697 57.4338 42.3446 58.0396L48.8187 64.5411L67.1874 46.6014C67.8372 45.9673 68.7122 45.6173 69.6201 45.6285C70.0696 45.634 70.5136 45.728 70.9268 45.9051C71.34 46.0822 71.7142 46.3389 72.0282 46.6607C72.3421 46.9824 72.5897 47.3629 72.7566 47.7803C72.9235 48.1977 73.0066 48.6439 73.0011 49.0934C72.9956 49.5429 72.9016 49.9869 72.7245 50.4001C72.5474 50.8133 72.2906 51.1875 71.9689 51.5015M21.6719 18.25H42.2031C43.1107 18.25 43.981 18.6105 44.6228 19.2522C45.2645 19.894 45.625 20.7643 45.625 21.6719C45.625 22.5794 45.2645 23.4498 44.6228 24.0915C43.981 24.7332 43.1107 25.0938 42.2031 25.0938H21.6719C20.7643 25.0938 19.894 24.7332 19.2522 24.0915C18.6105 23.4498 18.25 22.5794 18.25 21.6719C18.25 20.7643 18.6105 19.894 19.2522 19.2522C19.894 18.6105 20.7643 18.25 21.6719 18.25ZM18.25 35.3594C18.25 34.4518 18.6105 33.5815 19.2522 32.9397C19.894 32.298 20.7643 31.9375 21.6719 31.9375H30.7969C31.7044 31.9375 32.5748 32.298 33.2165 32.9397C33.8582 33.5815 34.2188 34.4518 34.2188 35.3594C34.2188 36.2669 33.8582 37.1373 33.2165 37.779C32.5748 38.4207 31.7044 38.7812 30.7969 38.7812H21.6719C20.7643 38.7812 19.894 38.4207 19.2522 37.779C18.6105 37.1373 18.25 36.2669 18.25 35.3594Z" fill="#589AD8"/>
</g>
<defs>
<clipPath id="clip0_34_21">
<rect width="73" height="73" fill="white"/>
</clipPath>
</defs>
</svg>
