<svg width="24" height="24" viewBox="0 0 24 24" fill="none" xmlns="http://www.w3.org/2000/svg">
<g clip-path="url(#clip0_20_19)">
<path d="M12 -0.000671387C18.6343 -0.000671387 24 5.36504 24 11.9993C24 18.6336 18.6343 23.9993 12 23.9993C5.36571 23.9993 0 18.6336 0 11.9993C0 5.36504 5.36571 -0.000671387 12 -0.000671387ZM9.80571 18.325C15.12 18.325 18.0343 13.9193 18.0343 10.0965V9.71933C18.6 9.3079 19.0971 8.79361 19.4743 8.21076C18.96 8.43361 18.3943 8.5879 17.8114 8.67361C18.4114 8.31361 18.8743 7.7479 19.08 7.07933C18.5143 7.40504 17.8971 7.64504 17.2457 7.78219C16.7143 7.21647 15.96 6.87361 15.1371 6.87361C13.5429 6.87361 12.24 8.17647 12.24 9.77076C12.24 9.99361 12.2571 10.2165 12.3257 10.4222C9.92571 10.3022 7.78286 9.15361 6.36 7.40504C6.12 7.83361 5.96571 8.33076 5.96571 8.86219C5.96571 9.85647 6.48 10.7479 7.25143 11.2622C6.77143 11.2622 6.32571 11.125 5.94857 10.9022V10.9365C5.94857 12.3422 6.94286 13.5079 8.26286 13.7822C8.02286 13.8508 7.76571 13.885 7.50857 13.885C7.32 13.885 7.14857 13.8679 6.96 13.8336C7.32 14.9822 8.4 15.8222 9.65143 15.8393C8.65714 16.6108 7.40571 17.0736 6.05143 17.0736C5.81143 17.0736 5.58857 17.0736 5.36571 17.0393C6.63429 17.8622 8.16 18.3422 9.78857 18.3422" fill="#589AD8"/>
</g>
<defs>
<clipPath id="clip0_20_19">
<rect width="24" height="24" fill="white" transform="translate(0 -0.000671387)"/>
</clipPath>
</defs>
</svg>
