<svg width="98" height="98" viewBox="0 0 98 98" fill="none" xmlns="http://www.w3.org/2000/svg">
<path d="M76.1414 24.9487C76.1001 25.3621 76.0756 25.8337 76.0648 26.3452L70.194 29.1489C69.3717 29.0141 65.294 29.2515 59.2119 26.2502C57.6699 25.4892 56.1632 25.0849 54.7162 25.0849C53.4067 25.0868 52.1163 25.399 50.9508 25.996C49.415 25.6637 47.2023 24.8124 45.9084 24.8154C42.9807 24.8307 36.3243 27.2149 34.4807 27.4186C32.6769 27.6161 30.8195 28.1122 28.9498 28.9023C25.552 27.9132 21.292 26.2977 19.0105 25.405L3.0625 13.7812V51.1591L14.7827 56.7359C14.9527 56.5368 15.1471 56.2306 15.3584 55.8508L15.7213 56.0192C15.899 56.4786 16.095 56.9365 16.3093 57.3913C15.0231 59.5564 14.87 61.9957 15.8974 64.1165C16.7779 65.931 18.4179 67.205 20.2447 67.5618C20.3442 68.6919 20.7239 69.7852 21.364 70.733C22.5124 72.4281 24.3377 73.4403 26.2502 73.4403C26.4233 73.4403 26.5963 73.4326 26.7678 73.4127C27.0403 74.1493 27.44 74.8352 27.9591 75.4294C29.1137 76.757 30.7307 77.518 32.3936 77.518C32.5161 77.518 32.6355 77.5149 32.7565 77.5058C32.9678 78.3081 33.3277 79.0676 33.8299 79.7444C34.986 81.3063 36.7699 82.2358 38.6043 82.2358C39.7436 82.2358 40.8323 81.8867 41.7924 81.2328C43.6483 82.4241 45.2622 83.2617 46.6939 83.7762C47.4121 84.0687 48.1593 84.2188 48.9219 84.2188C50.7257 84.2188 52.4759 83.3766 53.7254 81.9035C54.1894 81.3553 54.5661 80.7428 54.8417 80.0874C55.3815 80.2508 55.9422 80.3343 56.5062 80.3355C58.4233 80.3355 60.2409 79.3968 61.4981 77.7553C62.0953 76.9774 62.5277 76.086 62.769 75.1354C62.9007 75.1446 63.0308 75.1492 63.161 75.1492C65.3767 75.1492 67.4975 73.8491 68.6903 71.7559C69.3157 70.6671 69.6476 69.4345 69.6535 68.1789C71.8432 67.8528 73.771 66.2955 74.7097 64.0246C75.6346 61.7875 75.3834 59.3191 74.0926 57.2611L80.0568 53.9C80.2099 54.4237 80.36 54.906 80.5055 55.298L94.9375 47.6188V16.2956L76.1414 24.9487ZM76.1399 29.5991C76.2348 31.2559 76.4078 33.1286 76.6314 35.084C75.4064 33.026 73.8598 32.0873 71.9397 31.6203L76.1399 29.5991ZM68.1345 65.9754C64.8454 64.8438 57.9992 56.7956 57.9992 56.7956H58.1339C58.8306 56.7466 60.3358 56.0131 62.0248 56.3638C59.3727 54.0853 56.4557 56.0131 54.4696 54.8325C54.9305 56.3102 57.1463 56.7757 57.7143 56.7941L64.2742 64.4227C67.2448 67.8757 65.1761 72.1479 62.1978 72.8278C60.1996 71.8554 54.5569 65.144 54.5569 65.144C54.7498 65.1087 55.8937 64.7504 57.059 64.9036C54.3686 62.8915 51.3183 64.6371 49.5084 63.3738C50.5343 65.9081 53.9138 65.2588 54.2675 65.1976L57.7771 69.678C60.5854 73.2611 58.3789 77.4001 55.396 77.9605C52.7516 77.0311 51.035 73.7236 51.035 73.7236C51.3015 73.6807 52.1927 73.2841 53.4605 73.4678C51.205 71.491 48.5789 73.2841 47.0002 72.1586C47.9756 74.284 50.4072 73.8001 50.5435 73.7848C52.9751 77.6145 50.4532 81.608 47.4397 81.7274H47.4366L47.4335 81.7289C45.6236 81.415 43.7279 79.968 41.5872 78.4827C42.3222 77.6681 42.9715 76.2363 42.9715 76.2363C45.1213 72.3439 42.3314 68.9017 39.4511 69.1972C41.7878 69.8357 43.5396 72.8186 41.7158 76.1307L40.915 77.4782C40.0452 79.063 38.687 80.0201 37.6887 79.9022C36.1513 79.7153 33.9846 77.4705 34.8957 74.3039C35.2478 73.9823 38.6442 68.7868 38.6442 68.7868C40.9793 65.0261 38.3578 61.4261 35.4699 61.5486C37.7698 62.3249 39.3822 65.4089 37.3993 68.6092L34.6384 72.9135C33.6967 74.4356 32.4778 75.2977 31.3156 75.1384C29.5118 74.8934 28.247 72.693 28.5364 70.4222C28.5211 70.436 30.5239 68.1957 30.5239 68.1957C33.1852 64.7183 30.9068 60.835 28.0234 60.6314C30.2391 61.6634 31.5591 64.9158 29.2974 67.8757L28.3205 69.0732C27.2486 70.4788 25.9578 71.1939 24.8277 70.9122C22.8554 70.4176 21.8295 66.7273 22.762 65.7212C23.4955 64.9296 25.555 62.4229 25.555 62.4229C28.2148 58.9439 25.9394 55.0622 23.053 54.8555C25.2702 55.8906 26.5902 59.143 24.3285 62.1044L23.3516 63.2988C22.2736 64.7168 20.9781 65.4288 19.8404 65.1394C17.47 64.5391 16.2864 60.8794 18.5542 57.9088C18.5542 57.9088 17.7839 55.4619 17.4363 54.416L16.294 53.8862C18.9722 47.6464 23.0177 33.8743 23.2046 29.2989C25.1768 30.0018 30.3831 31.4993 30.9358 31.5024L30.9328 31.5055C36.5372 29.7445 42.411 29.939 45.0907 28.9039C45.9589 28.5731 47.6862 28.5517 49.5176 29.5991C48.3737 30.602 47.2927 31.7964 46.1702 32.9096C43.4875 35.5725 33.5129 39.7252 35.4362 44.0923C37.0961 47.8607 41.771 51.7164 49.6125 45.6634L54.0225 45.057L60.881 48.4411L69.6703 57.4678C72.8048 60.6804 71.0301 65.0414 68.1345 65.9754ZM70.3395 56.03C69.3319 54.1465 66.1913 51.058 63.2268 48.533L63.2085 48.5146C64.5759 48.5697 66.0107 46.3678 67.865 46.1978C66.5696 45.2086 64.4227 46.3509 63.7536 46.5316C60.0648 47.5239 54.3318 42.8827 54.3318 42.8827L48.8469 43.6728C48.8469 43.6728 42.3237 51.6338 36.8281 45.0754C33.8437 41.5137 44.6589 36.8618 47.3233 34.2143C50.7364 30.8225 53.7775 26.6728 59.3926 29.4995C64.0568 31.8515 65.8943 31.7061 72.151 32.7948C74.016 33.1209 75.3084 33.9754 76.6942 35.6429C77.3465 41.1309 78.4015 47.2176 79.4137 51.4531C78.8915 51.8925 74.4157 54.903 70.3395 56.03Z" fill="#589AD8"/>
</svg>
