<svg width="51" height="51" viewBox="0 0 51 51" fill="none" xmlns="http://www.w3.org/2000/svg">
<path d="M44.4178 7.04916C44.6265 7.50178 44.9788 7.85878 45.4441 8.06119L47.3805 8.90109C47.5091 8.95737 47.6185 9.0499 47.6953 9.16736C47.7722 9.28483 47.8131 9.42214 47.8131 9.5625C47.8131 9.70286 47.7722 9.84017 47.6953 9.95764C47.6185 10.0751 47.5091 10.1676 47.3805 10.2239L45.4601 11.0638C45.0015 11.2575 44.6347 11.6198 44.4353 12.0758L42.9149 15.5295C42.6439 16.073 41.8263 16.073 41.5538 15.5295L40.0334 12.0758C39.8292 11.623 39.4639 11.2623 39.0086 11.0638L37.0881 10.2239C36.9595 10.1676 36.8501 10.0751 36.7733 9.95764C36.6965 9.84017 36.6556 9.70286 36.6556 9.5625C36.6556 9.42214 36.6965 9.28483 36.7733 9.16736C36.8501 9.0499 36.9595 8.95737 37.0881 8.90109L39.0086 8.06119C39.4671 7.86746 39.8339 7.50524 40.0334 7.04916L41.5538 3.5955C41.8247 3.05203 42.6423 3.05203 42.9149 3.5955L44.4178 7.04916ZM25.4729 8.23172C25.6223 8.54608 25.8821 8.79454 26.2028 8.92978L27.5798 9.50353C27.9942 9.69 27.9942 10.2319 27.5798 10.4183L26.2028 10.9921C25.8784 11.1217 25.6168 11.3719 25.4729 11.6902L24.3955 14.0648C24.1963 14.4362 23.6145 14.4362 23.4169 14.0648L22.3395 11.6902C22.1907 11.3753 21.9307 11.1267 21.6096 10.9921L20.2326 10.4183C20.1411 10.3818 20.0627 10.3187 20.0074 10.2372C19.9522 10.1557 19.9226 10.0594 19.9226 9.96094C19.9226 9.86244 19.9522 9.76621 20.0074 9.68467C20.0627 9.60313 20.1411 9.54003 20.2326 9.50353L21.6096 8.92978C21.934 8.80017 22.1956 8.54999 22.3395 8.23172L23.4169 5.85703C23.6161 5.48569 24.1979 5.48569 24.3955 5.85703L25.4729 8.23172ZM6.37495 41.4375L3.72614 44.0305C3.55551 44.2003 3.4201 44.402 3.32771 44.6243C3.23531 44.8465 3.18774 45.0848 3.18774 45.3255C3.18774 45.5661 3.23531 45.8044 3.32771 46.0266C3.4201 46.2489 3.55551 46.4507 3.72614 46.6204L4.37958 47.2738C5.08083 47.9942 6.24426 47.9942 6.94551 47.2579L9.56245 44.6362L9.55767 44.6314L31.875 22.3125L34.5429 19.6557C35.2362 18.9465 35.2362 17.6795 34.5429 16.9862L34.017 16.4587C33.3093 15.7622 31.875 15.9375 31.0781 16.7344L6.37495 41.4375ZM41.3578 25.9749C41.0291 25.8168 40.7687 25.5451 40.6246 25.2099L39.5329 22.6249C39.3289 22.2089 38.7488 22.2089 38.5607 22.6249L37.469 25.2115C37.3248 25.5462 37.0644 25.8173 36.7359 25.9749L35.37 26.5997C34.9605 26.8069 34.9605 27.3966 35.37 27.5878L36.7343 28.2126C37.063 28.3707 37.3234 28.6424 37.4674 28.9776L38.5607 31.5626C38.7647 31.9786 39.3449 31.9786 39.5329 31.5626L40.6246 28.9776C40.7685 28.6423 41.029 28.3706 41.3578 28.2126L42.7236 27.5878C43.1332 27.3806 43.1332 26.7909 42.7236 26.5997L41.3578 25.9749ZM19.125 22.3125C19.5476 22.3125 19.953 22.1446 20.2519 21.8457C20.5508 21.5468 20.7187 21.1414 20.7187 20.7188C20.7187 20.2961 20.5508 19.8907 20.2519 19.5918C19.953 19.2929 19.5476 19.125 19.125 19.125C18.7023 19.125 18.2969 19.2929 17.998 19.5918C17.6991 19.8907 17.5312 20.2961 17.5312 20.7188C17.5312 21.1414 17.6991 21.5468 17.998 21.8457C18.2969 22.1446 18.7023 22.3125 19.125 22.3125ZM47.8125 20.7188C47.8125 21.1414 47.6445 21.5468 47.3457 21.8457C47.0468 22.1446 46.6414 22.3125 46.2187 22.3125C45.796 22.3125 45.3906 22.1446 45.0917 21.8457C44.7929 21.5468 44.625 21.1414 44.625 20.7188C44.625 20.2961 44.7929 19.8907 45.0917 19.5918C45.3906 19.2929 45.796 19.125 46.2187 19.125C46.6414 19.125 47.0468 19.2929 47.3457 19.5918C47.6445 19.8907 47.8125 20.2961 47.8125 20.7188ZM30.2812 6.375C30.7039 6.375 31.1093 6.20709 31.4082 5.9082C31.707 5.60932 31.875 5.20394 31.875 4.78125C31.875 4.35856 31.707 3.95318 31.4082 3.6543C31.1093 3.35541 30.7039 3.1875 30.2812 3.1875C29.8585 3.1875 29.4531 3.35541 29.1542 3.6543C28.8554 3.95318 28.6875 4.35856 28.6875 4.78125C28.6875 5.20394 28.8554 5.60932 29.1542 5.9082C29.4531 6.20709 29.8585 6.375 30.2812 6.375ZM31.875 33.4688C31.875 33.8914 31.707 34.2968 31.4082 34.5957C31.1093 34.8946 30.7039 35.0625 30.2812 35.0625C29.8585 35.0625 29.4531 34.8946 29.1542 34.5957C28.8554 34.2968 28.6875 33.8914 28.6875 33.4688C28.6875 33.0461 28.8554 32.6407 29.1542 32.3418C29.4531 32.0429 29.8585 31.875 30.2812 31.875C30.7039 31.875 31.1093 32.0429 31.4082 32.3418C31.707 32.6407 31.875 33.0461 31.875 33.4688Z" fill="#589AD8"/>
</svg>
