<svg width="20" height="16" viewBox="0 0 20 16" fill="none" xmlns="http://www.w3.org/2000/svg">
<path d="M13.125 8.896C13.125 9.7248 12.7958 10.5197 12.2097 11.1057C11.6237 11.6918 10.8288 12.021 10 12.021C9.1712 12.021 8.37634 11.6918 7.79029 11.1057C7.20424 10.5197 6.875 9.7248 6.875 8.896C6.875 8.06719 7.20424 7.27234 7.79029 6.68629C8.37634 6.10024 9.1712 5.771 10 5.771C10.8288 5.771 11.6237 6.10024 12.2097 6.68629C12.7958 7.27234 13.125 8.06719 13.125 8.896Z" fill="#589AD8"/>
<path d="M2.5 3.271C1.83696 3.271 1.20107 3.53439 0.732233 4.00323C0.263392 4.47207 0 5.10795 0 5.771L0 13.271C0 13.934 0.263392 14.5699 0.732233 15.0388C1.20107 15.5076 1.83696 15.771 2.5 15.771H17.5C18.163 15.771 18.7989 15.5076 19.2678 15.0388C19.7366 14.5699 20 13.934 20 13.271V5.771C20 5.10795 19.7366 4.47207 19.2678 4.00323C18.7989 3.53439 18.163 3.271 17.5 3.271H16.035C15.372 3.27085 14.7362 3.00737 14.2675 2.5385L13.2325 1.5035C12.7638 1.03462 12.128 0.771138 11.465 0.770996H8.535C7.87201 0.771138 7.23623 1.03462 6.7675 1.5035L5.7325 2.5385C5.26377 3.00737 4.62799 3.27085 3.965 3.271H2.5ZM3.125 5.771C2.95924 5.771 2.80027 5.70515 2.68306 5.58794C2.56585 5.47073 2.5 5.31176 2.5 5.146C2.5 4.98024 2.56585 4.82126 2.68306 4.70405C2.80027 4.58684 2.95924 4.521 3.125 4.521C3.29076 4.521 3.44973 4.58684 3.56694 4.70405C3.68415 4.82126 3.75 4.98024 3.75 5.146C3.75 5.31176 3.68415 5.47073 3.56694 5.58794C3.44973 5.70515 3.29076 5.771 3.125 5.771ZM14.375 8.896C14.375 10.0563 13.9141 11.1691 13.0936 11.9896C12.2731 12.8101 11.1603 13.271 10 13.271C8.83968 13.271 7.72688 12.8101 6.90641 11.9896C6.08594 11.1691 5.625 10.0563 5.625 8.896C5.625 7.73567 6.08594 6.62288 6.90641 5.8024C7.72688 4.98193 8.83968 4.521 10 4.521C11.1603 4.521 12.2731 4.98193 13.0936 5.8024C13.9141 6.62288 14.375 7.73567 14.375 8.896Z" fill="#589AD8"/>
</svg>
