<svg width="18" height="24" viewBox="0 0 18 24" fill="none" xmlns="http://www.w3.org/2000/svg">
<path d="M8.03667 23.4164H8.03651C7.96911 23.4164 7.90224 23.4046 7.83887 23.3817C7.71649 23.3367 7.61271 23.2521 7.54408 23.1412C7.47533 23.0301 7.44584 22.8992 7.46033 22.7694L7.4605 22.7679L8.29466 15.0871L8.35483 14.5331H7.79759H1.41675L1.416 14.5331C1.31003 14.5333 1.20601 14.5046 1.11513 14.4501C1.02424 14.3956 0.949918 14.3173 0.900141 14.2238C0.850364 14.1302 0.827014 14.0249 0.832598 13.919C0.838181 13.8132 0.872488 13.7109 0.931839 13.6231L0.933233 13.621L9.47937 0.839731C9.47957 0.839433 9.47977 0.839136 9.47997 0.838839C9.55275 0.731568 9.65919 0.651585 9.7825 0.611537C9.90559 0.571557 10.0385 0.573654 10.1602 0.617469C10.277 0.661219 10.3767 0.741237 10.4446 0.845805C10.5112 0.948211 10.5439 1.06886 10.5382 1.19071L9.70547 8.91284L9.64577 9.46645H10.2026H16.5834L16.5842 9.46645C16.6901 9.46629 16.7942 9.495 16.885 9.5495C16.9759 9.604 17.0503 9.68223 17.1 9.77578C17.1498 9.86934 17.1732 9.97469 17.1676 10.0805C17.162 10.1863 17.1277 10.2886 17.0683 10.3764L17.0669 10.3785L8.52084 23.1598C8.52066 23.16 8.52048 23.1603 8.5203 23.1606C8.46685 23.2394 8.39491 23.3039 8.31077 23.3485C8.22635 23.3933 8.13222 23.4166 8.03667 23.4164Z" stroke="#F1C644"/>
</svg>
