<svg width="24" height="24" viewBox="0 0 24 24" fill="none" xmlns="http://www.w3.org/2000/svg">
<path d="M13.028 1.99933C14.153 2.00233 14.724 2.00833 15.217 2.02233L15.411 2.02933C15.635 2.03733 15.856 2.04733 16.123 2.05933C17.187 2.10933 17.913 2.27733 18.55 2.52433C19.21 2.77833 19.766 3.12233 20.322 3.67733C20.8305 4.17722 21.2239 4.78192 21.475 5.44933C21.722 6.08633 21.89 6.81233 21.94 7.87733C21.952 8.14333 21.962 8.36433 21.97 8.58933L21.976 8.78333C21.991 9.27533 21.997 9.84633 21.999 10.9713L22 11.7173V13.0273C22.0024 13.7567 21.9948 14.4861 21.977 15.2153L21.971 15.4093C21.963 15.6343 21.953 15.8553 21.941 16.1213C21.891 17.1863 21.721 17.9113 21.475 18.5493C21.2246 19.2171 20.8311 19.8219 20.322 20.3213C19.8219 20.8296 19.2173 21.2231 18.55 21.4743C17.913 21.7213 17.187 21.8893 16.123 21.9393C15.8857 21.9505 15.6483 21.9605 15.411 21.9693L15.217 21.9753C14.724 21.9893 14.153 21.9963 13.028 21.9983L12.282 21.9993H10.973C10.2432 22.0018 9.51349 21.9942 8.78397 21.9763L8.58997 21.9703C8.35258 21.9613 8.11524 21.951 7.87797 21.9393C6.81397 21.8893 6.08797 21.7213 5.44997 21.4743C4.78264 21.2237 4.17818 20.8302 3.67897 20.3213C3.17001 19.8216 2.77619 19.2169 2.52497 18.5493C2.27797 17.9123 2.10997 17.1863 2.05997 16.1213C2.04883 15.884 2.03883 15.6467 2.02997 15.4093L2.02497 15.2153C2.00654 14.4861 1.9982 13.7567 1.99997 13.0273V10.9713C1.99718 10.2419 2.00451 9.51253 2.02197 8.78333L2.02897 8.58933C2.03697 8.36433 2.04697 8.14333 2.05897 7.87733C2.10897 6.81233 2.27697 6.08733 2.52397 5.44933C2.77508 4.78123 3.16969 4.17635 3.67997 3.67733C4.17906 3.1688 4.78311 2.77532 5.44997 2.52433C6.08797 2.27733 6.81297 2.10933 7.87797 2.05933C8.14397 2.04733 8.36597 2.03733 8.58997 2.02933L8.78397 2.02333C9.51316 2.00556 10.2426 1.99789 10.972 2.00033L13.028 1.99933ZM12 6.99933C10.6739 6.99933 9.40211 7.52611 8.46443 8.46379C7.52675 9.40148 6.99997 10.6732 6.99997 11.9993C6.99997 13.3254 7.52675 14.5972 8.46443 15.5349C9.40211 16.4725 10.6739 16.9993 12 16.9993C13.326 16.9993 14.5978 16.4725 15.5355 15.5349C16.4732 14.5972 17 13.3254 17 11.9993C17 10.6732 16.4732 9.40148 15.5355 8.46379C14.5978 7.52611 13.326 6.99933 12 6.99933ZM12 8.99933C12.3939 8.99926 12.7841 9.0768 13.1481 9.2275C13.5121 9.3782 13.8428 9.59913 14.1214 9.87766C14.4001 10.1562 14.6211 10.4869 14.7719 10.8508C14.9227 11.2148 15.0004 11.6049 15.0005 11.9988C15.0005 12.3928 14.923 12.7829 14.7723 13.1469C14.6216 13.5109 14.4007 13.8417 14.1221 14.1203C13.8436 14.3989 13.5129 14.62 13.149 14.7708C12.785 14.9216 12.3949 14.9993 12.001 14.9993C11.2053 14.9993 10.4423 14.6833 9.87965 14.1206C9.31704 13.558 9.00097 12.795 9.00097 11.9993C9.00097 11.2037 9.31704 10.4406 9.87965 9.87801C10.4423 9.3154 11.2053 8.99933 12.001 8.99933M17.251 5.49933C16.9194 5.49933 16.6015 5.63102 16.3671 5.86545C16.1327 6.09987 16.001 6.41781 16.001 6.74933C16.001 7.08085 16.1327 7.39879 16.3671 7.63321C16.6015 7.86763 16.9194 7.99933 17.251 7.99933C17.5825 7.99933 17.9004 7.86763 18.1349 7.63321C18.3693 7.39879 18.501 7.08085 18.501 6.74933C18.501 6.41781 18.3693 6.09987 18.1349 5.86545C17.9004 5.63102 17.5825 5.49933 17.251 5.49933Z" fill="#589AD8"/>
</svg>
