<svg width="52" height="52" viewBox="0 0 52 52" fill="none" xmlns="http://www.w3.org/2000/svg">
<path fill-rule="evenodd" clip-rule="evenodd" d="M36.8368 12.6674C39.429 10.9384 42.9 12.7974 42.9 15.9122V24.396C42.9 27.5108 39.429 29.3698 36.8368 27.6408L29.1798 22.537L30.6202 20.3738L38.2798 25.4776C38.4756 25.6079 38.703 25.6827 38.9379 25.6939C39.1728 25.7051 39.4063 25.6524 39.6136 25.5415C39.8209 25.4305 39.9942 25.2653 40.1151 25.0636C40.236 24.8619 40.2999 24.6312 40.3 24.396V15.9122C40.2999 15.6771 40.236 15.4464 40.1151 15.2447C39.9942 15.043 39.8209 14.8778 39.6136 14.7668C39.4063 14.6558 39.1728 14.6032 38.9379 14.6144C38.703 14.6256 38.4756 14.7004 38.2798 14.8306L30.6202 19.937L29.1798 17.7738L36.8368 12.6674ZM34.9882 46.6832C34.9189 46.8393 34.8196 46.9802 34.6958 47.0978C34.5721 47.2155 34.4264 47.3076 34.267 47.3689C34.1077 47.4302 33.9378 47.4596 33.7671 47.4552C33.5964 47.4509 33.4282 47.413 33.2722 47.3436L23.4 42.9522V47.4502C23.4 47.795 23.263 48.1257 23.0192 48.3695C22.7754 48.6133 22.4448 48.7502 22.1 48.7502C21.7552 48.7502 21.4246 48.6133 21.1808 48.3695C20.937 48.1257 20.8 47.795 20.8 47.4502V42.9522L10.9278 47.341C10.6127 47.481 10.2548 47.4901 9.93303 47.3662C9.61122 47.2424 9.35179 46.9958 9.2118 46.6806C9.07182 46.3655 9.06276 46.0077 9.18661 45.6859C9.31046 45.3641 9.55707 45.1046 9.8722 44.9646L20.8 40.1104V29.2554C20.8 28.9107 20.937 28.58 21.1808 28.3362C21.4246 28.0924 21.7552 27.9554 22.1 27.9554C22.4448 27.9554 22.7754 28.0924 23.0192 28.3362C23.263 28.58 23.4 28.9107 23.4 29.2554V40.1104L34.3278 44.9672C34.4839 45.0365 34.6247 45.1359 34.7424 45.2596C34.86 45.3834 34.9521 45.5291 35.0135 45.6884C35.0748 45.8478 35.1041 46.0177 35.0998 46.1884C35.0955 46.3591 35.0575 46.5272 34.9882 46.6832Z" fill="#589AD8"/>
<path fill-rule="evenodd" clip-rule="evenodd" d="M13 14.9552C13 13.9208 13.4109 12.9289 14.1423 12.1975C14.8737 11.4661 15.8657 11.0552 16.9 11.0552H27.3C28.3343 11.0552 29.3263 11.4661 30.0577 12.1975C30.7891 12.9289 31.2 13.9208 31.2 14.9552V25.3552C31.2 26.3895 30.7891 27.3815 30.0577 28.1129C29.3263 28.8443 28.3343 29.2552 27.3 29.2552H16.9C15.8657 29.2552 14.8737 28.8443 14.1423 28.1129C13.4109 27.3815 13 26.3895 13 25.3552V14.9552ZM16.9 13.6552C16.5552 13.6552 16.2246 13.7921 15.9808 14.0359C15.737 14.2797 15.6 14.6104 15.6 14.9552V25.3552C15.6 25.7 15.737 26.0306 15.9808 26.2744C16.2246 26.5182 16.5552 26.6552 16.9 26.6552H27.3C27.6448 26.6552 27.9754 26.5182 28.2192 26.2744C28.463 26.0306 28.6 25.7 28.6 25.3552V14.9552C28.6 14.6104 28.463 14.2797 28.2192 14.0359C27.9754 13.7921 27.6448 13.6552 27.3 13.6552H16.9Z" fill="#589AD8"/>
<path fill-rule="evenodd" clip-rule="evenodd" d="M28.9795 14.573C28.7358 14.3293 28.5989 13.9987 28.5989 13.6539C28.5989 13.3092 28.7358 12.9786 28.9795 12.7348L36.7795 4.93485C37.0233 4.69074 37.354 4.55347 37.699 4.55322C38.044 4.55298 38.3749 4.68979 38.619 4.93355C38.8631 5.17731 39.0004 5.50805 39.0006 5.85303C39.0009 6.198 38.8641 6.52894 38.6203 6.77305L30.8203 14.573C30.6995 14.6941 30.5561 14.7902 30.3981 14.8557C30.2402 14.9212 30.0709 14.955 29.8999 14.955C29.7289 14.955 29.5596 14.9212 29.4017 14.8557C29.2437 14.7902 29.1003 14.6941 28.9795 14.573ZM38.6203 35.373C38.4995 35.4941 38.3561 35.5902 38.1981 35.6557C38.0402 35.7212 37.8709 35.755 37.6999 35.755C37.5289 35.755 37.3596 35.7212 37.2017 35.6557C37.0437 35.5902 36.9003 35.4941 36.7795 35.373L28.9795 27.573C28.7427 27.3279 28.6117 26.9995 28.6146 26.6586C28.6176 26.3178 28.7543 25.9917 28.9953 25.7507C29.2364 25.5097 29.5624 25.3729 29.9033 25.37C30.2441 25.367 30.5725 25.498 30.8177 25.7348L38.6177 33.5348C38.8614 33.7786 38.9983 34.1092 38.9983 34.4539C38.9983 34.7987 38.8614 35.1293 38.6177 35.373" fill="#589AD8"/>
</svg>
