<svg width="56" height="56" viewBox="0 0 56 56" fill="none" xmlns="http://www.w3.org/2000/svg">
<path d="M28 25.6665C31.0942 25.6665 34.0616 26.8957 36.2495 29.0836C38.4375 31.2715 39.6666 34.239 39.6666 37.3332V51.3332H35V37.3332C35.0001 35.5477 34.3179 33.8296 33.093 32.5306C31.8681 31.2315 30.193 30.4496 28.4106 30.3448L28 30.3332C26.2145 30.3331 24.4964 31.0153 23.1974 32.2402C21.8983 33.4651 21.1164 35.1401 21.0116 36.9225L21 37.3332V51.3332H16.3333V37.3332C16.3333 34.239 17.5625 31.2715 19.7504 29.0836C21.9383 26.8957 24.9058 25.6665 28 25.6665ZM12.8333 32.6665C13.4843 32.6665 14.1166 32.7435 14.7233 32.8858C14.3244 34.0735 14.0881 35.3098 14.021 36.5608L14 37.3332V37.5338C13.7317 37.4379 13.4528 37.3752 13.1693 37.3472L12.8333 37.3332C11.9636 37.3332 11.1251 37.6569 10.481 38.2414C9.83703 38.8259 9.4337 39.6292 9.34963 40.4948L9.33329 40.8332V51.3332H4.66663V40.8332C4.66663 38.6672 5.52704 36.59 7.05859 35.0585C8.59013 33.5269 10.6674 32.6665 12.8333 32.6665ZM43.1666 32.6665C45.3326 32.6665 47.4098 33.5269 48.9413 35.0585C50.4729 36.59 51.3333 38.6672 51.3333 40.8332V51.3332H46.6666V40.8332C46.6666 39.9635 46.3429 39.1249 45.7584 38.4809C45.1739 37.8369 44.3706 37.4336 43.505 37.3495L43.1666 37.3332C42.7583 37.3332 42.3663 37.4032 42 37.5315V37.3332C42 35.7792 41.748 34.2858 41.2813 32.8905C41.8833 32.7435 42.518 32.6665 43.1666 32.6665ZM12.8333 18.6665C14.3804 18.6665 15.8641 19.2811 16.9581 20.375C18.052 21.469 18.6666 22.9527 18.6666 24.4998C18.6666 26.0469 18.052 27.5307 16.9581 28.6246C15.8641 29.7186 14.3804 30.3332 12.8333 30.3332C11.2862 30.3332 9.80247 29.7186 8.7085 28.6246C7.61454 27.5307 6.99996 26.0469 6.99996 24.4998C6.99996 22.9527 7.61454 21.469 8.7085 20.375C9.80247 19.2811 11.2862 18.6665 12.8333 18.6665ZM43.1666 18.6665C44.7137 18.6665 46.1975 19.2811 47.2914 20.375C48.3854 21.469 49 22.9527 49 24.4998C49 26.0469 48.3854 27.5307 47.2914 28.6246C46.1975 29.7186 44.7137 30.3332 43.1666 30.3332C41.6195 30.3332 40.1358 29.7186 39.0418 28.6246C37.9479 27.5307 37.3333 26.0469 37.3333 24.4998C37.3333 22.9527 37.9479 21.469 39.0418 20.375C40.1358 19.2811 41.6195 18.6665 43.1666 18.6665ZM12.8333 23.3332C12.5239 23.3332 12.2271 23.4561 12.0083 23.6749C11.7895 23.8937 11.6666 24.1904 11.6666 24.4998C11.6666 24.8093 11.7895 25.106 12.0083 25.3248C12.2271 25.5436 12.5239 25.6665 12.8333 25.6665C13.1427 25.6665 13.4395 25.5436 13.6583 25.3248C13.877 25.106 14 24.8093 14 24.4998C14 24.1904 13.877 23.8937 13.6583 23.6749C13.4395 23.4561 13.1427 23.3332 12.8333 23.3332ZM43.1666 23.3332C42.8572 23.3332 42.5605 23.4561 42.3417 23.6749C42.1229 23.8937 42 24.1904 42 24.4998C42 24.8093 42.1229 25.106 42.3417 25.3248C42.5605 25.5436 42.8572 25.6665 43.1666 25.6665C43.476 25.6665 43.7728 25.5436 43.9916 25.3248C44.2104 25.106 44.3333 24.8093 44.3333 24.4998C44.3333 24.1904 44.2104 23.8937 43.9916 23.6749C43.7728 23.4561 43.476 23.3332 43.1666 23.3332ZM28 4.6665C30.4753 4.6665 32.8493 5.64983 34.5996 7.40017C36.35 9.15051 37.3333 11.5245 37.3333 13.9998C37.3333 16.4752 36.35 18.8492 34.5996 20.5995C32.8493 22.3498 30.4753 23.3332 28 23.3332C25.5246 23.3332 23.1506 22.3498 21.4003 20.5995C19.65 18.8492 18.6666 16.4752 18.6666 13.9998C18.6666 11.5245 19.65 9.15051 21.4003 7.40017C23.1506 5.64983 25.5246 4.6665 28 4.6665ZM28 9.33317C26.7623 9.33317 25.5753 9.82484 24.7001 10.7C23.825 11.5752 23.3333 12.7622 23.3333 13.9998C23.3333 15.2375 23.825 16.4245 24.7001 17.2997C25.5753 18.1748 26.7623 18.6665 28 18.6665C29.2376 18.6665 30.4246 18.1748 31.2998 17.2997C32.175 16.4245 32.6666 15.2375 32.6666 13.9998C32.6666 12.7622 32.175 11.5752 31.2998 10.7C30.4246 9.82484 29.2376 9.33317 28 9.33317Z" fill="#589AD8"/>
</svg>
