<svg width="61" height="72" viewBox="0 0 61 72" fill="none" xmlns="http://www.w3.org/2000/svg">
<path fill-rule="evenodd" clip-rule="evenodd" d="M33.0481 0.402971C32.2536 0.567748 31.0391 1.2146 30.6584 1.67567C30.5273 1.83457 30.4955 1.92947 30.5879 1.88647C30.6803 1.84347 31.0582 1.66845 31.4277 1.49762C31.7973 1.32663 32.4535 1.17949 32.8862 1.17042C33.5371 1.15698 33.7603 1.23794 34.1797 1.63972C34.4587 1.90663 34.733 2.33528 34.7895 2.59228C34.9222 3.19679 36.3059 4.48713 37.3386 4.96937C37.7828 5.17681 38.1687 5.35771 38.1957 5.37115C38.3746 5.46051 37.6112 6.61311 37.373 6.61311C36.9521 6.61311 35.2883 5.03471 34.5257 3.91184C33.7462 2.76377 33.1845 2.29144 32.4317 2.15018C31.0873 1.89789 29.8732 2.69625 29.4002 4.14347C28.9796 5.43078 28.7115 5.90462 27.6993 7.14994C26.8827 8.1549 26.7145 8.28003 26.1201 8.32572L25.4549 8.37678L24.0361 11.3159C23.2559 12.9324 22.5707 14.5664 22.5136 14.947C22.4204 15.5687 22.8299 18.1909 23.4753 21.1049C23.5728 21.5462 23.6037 22.1689 23.544 22.4883C23.4156 23.1723 23.5636 23.4921 24.5922 24.7537C25.7752 26.2046 25.8787 26.5683 25.5428 28.094C25.3879 28.7974 24.9621 30.1665 24.5966 31.1365C24.2311 32.1066 23.8913 33.0282 23.8416 33.1846C23.7697 33.41 23.9442 33.5249 24.6856 33.7406C25.5755 33.9992 25.6158 34.0347 25.5263 34.4821C25.4491 34.8691 25.4994 34.9698 25.8122 35.0514C26.129 35.1344 26.157 35.1928 25.9815 35.4043C25.8508 35.5617 25.8134 35.8506 25.8826 36.1659C25.9489 36.4677 25.8831 37.0561 25.7205 37.6153C25.57 38.1331 25.2621 39.9176 25.0362 41.5808C24.8104 43.2442 24.587 44.6676 24.5398 44.7439C24.4926 44.8203 23.9446 45.1668 23.3217 45.5138C22.4711 45.9878 21.3326 46.9854 18.7461 49.5222C15.0278 53.1695 14.1123 53.8649 10.9209 55.4668C8.83946 56.5116 7.47455 56.9632 4.9745 57.4349C4.19026 57.5827 3.15288 57.8909 2.6693 58.1197C1.75757 58.5511 0.605469 59.7117 0.605469 60.199C0.605469 60.4536 0.706082 60.459 1.73926 60.259C2.36276 60.1382 3.65024 60.0367 4.6001 60.0334C6.52166 60.0265 7.02305 59.8792 8.21109 58.9723C8.63723 58.647 9.49958 58.2099 10.1274 58.001C10.7551 57.792 11.6632 57.4467 12.1454 57.2335C12.9092 56.8957 19.3815 53.3496 21.1396 52.3055C21.4862 52.0997 21.7695 52.0087 21.7695 52.1029C21.7695 52.1973 20.6547 53.9716 19.292 56.046C17.9293 58.1202 16.6418 60.0942 16.4308 60.4325C16 61.1235 15.7882 61.2251 13.5391 61.8202C12.6614 62.0525 11.8678 62.3179 11.7754 62.4098C11.4383 62.7456 14.2617 64.9994 16.3193 66.0368C18.3717 67.0714 20.5686 67.3849 20.9955 66.7039C21.2661 66.2724 20.9685 65.8906 19.9963 65.422C18.6213 64.7594 16.7305 63.6706 16.7305 63.5416C16.7305 63.4751 17.2784 63.3681 17.9482 63.3039C21.4264 62.9705 25.7422 61.917 27.7054 60.9221C29.0972 60.2168 28.9791 60.4911 26.9809 62.6048C26.4705 63.1448 25.3725 64.0433 24.541 64.6013C23.7096 65.1593 22.8593 65.7699 22.6514 65.9581C21.8827 66.6545 22.4055 68.2172 23.5695 68.7036C24.3556 69.032 25.6342 69.0242 26.2859 68.6873C27.0137 68.3109 27.1739 68.3596 27.6968 69.1151C28.4982 70.2731 29.8329 70.5712 31.3308 69.9269L32.1359 69.5806L32.8736 70.0709C35.2176 71.6289 37.3234 71.3845 38.4403 69.425C38.6983 68.9723 38.8985 68.7935 39.0703 68.8622C39.7815 69.1459 40.5706 69.1183 41.3281 68.7832L42.1236 68.4313L42.6637 68.8432C44.4729 70.2232 46.5508 70.0678 48.0857 68.438L48.6983 67.7877L49.3644 68.0227C51.1854 68.6651 52.721 67.9459 53.1817 66.2346L53.3529 65.5992L54.0286 65.8646C54.6472 66.1076 54.7527 66.107 55.2776 65.8567C56.1888 65.4221 56.7557 64.299 56.2958 63.8392C56.1558 63.6991 55.9495 63.554 55.8373 63.5165C55.7074 63.4732 55.8354 63.1972 56.1897 62.7565C56.5738 62.2785 56.7725 61.8278 56.8322 61.2992C56.9586 60.176 56.7722 60.0354 55.3036 60.1464C54.3356 60.2197 53.9686 60.1775 53.5092 59.9398C52.8486 59.5983 50.2858 57.0069 49.4632 55.8489L48.9114 55.0721L49.9253 56.0026C51.5445 57.489 53.824 58.8645 55.498 59.3654C56.0343 59.5259 56.4391 59.834 57.0693 60.5615C58.3175 62.0023 59.049 62.0349 59.7399 60.6806C60.2859 59.6103 60.1593 59.3602 58.8476 58.9187C58.2234 58.7086 57.493 58.3802 57.2242 58.1891C56.5433 57.7042 56.0352 56.5754 56.0352 55.5476V54.7014L54.8174 54.5027C51.7011 53.9944 46.666 50.3438 44.1934 46.8001C43.7314 46.138 43.3063 45.5931 43.2485 45.5891C43.0849 45.5778 42.9334 46.5371 42.9349 47.5765C42.9386 50.4031 44.0556 53.5545 45.8737 55.8684C46.7263 56.9535 47.4946 57.5167 48.9245 58.1046C49.9166 58.5126 49.8477 58.5929 48.5605 58.5292C47.3681 58.4703 46.1788 58.0287 44.8894 57.1663C41.1084 54.6374 38.8983 49.8523 37.3666 40.8787C37.075 39.1697 36.8296 37.1288 36.8215 36.3436C36.8079 35.0171 36.8588 34.7937 37.5394 33.1942C37.9424 32.2473 38.3265 31.4725 38.3929 31.4725C38.4594 31.4725 38.9532 31.6237 39.4902 31.8084C40.659 32.2105 40.75 32.2168 40.75 31.8948C40.75 31.7575 40.4342 31.4362 40.0484 31.1809C39.1466 30.5843 39.5583 30.4719 40.7571 30.9877L41.6286 31.3626L41.9337 30.9582C42.2785 30.5008 42.2505 30.4842 42.6598 31.3885C43.5568 33.3704 45.7879 36.9862 46.7658 38.0427C47.9592 39.3321 49.4291 40.1707 50.6266 40.2457L51.3488 40.2908L51.8437 39.0311C52.1159 38.3382 52.3388 37.6819 52.3392 37.5726C52.34 37.3452 52.0756 37.2556 50.9538 37.1033C49.9782 36.9706 48.2083 35.8338 47.7568 35.0495C47.4491 34.5152 47.4496 34.5092 47.8327 34.2097C48.6633 33.5603 49.5002 32.6024 49.4515 32.3565C49.4209 32.2015 49.0477 32.008 48.5187 31.8728C46.9477 31.4711 45.0917 30.2645 44.27 29.1105C43.8877 28.5735 43.8875 28.5712 44.19 27.6811C44.3566 27.1906 44.7846 26.4364 45.141 26.0053C45.4975 25.5739 45.7891 25.045 45.7891 24.8297C45.7891 24.6135 45.4844 24.0862 45.1088 23.6522C44.7346 23.2198 44.4512 22.7473 44.4792 22.6021C44.5071 22.4568 44.9711 22.1672 45.5106 21.9582C46.7502 21.4782 46.9648 21.2956 46.9648 20.7223C46.9648 20.3649 46.8484 20.2112 46.4541 20.0478C45.161 19.5121 44.7811 18.7977 45.5289 18.3078C46.1838 17.8788 46.7828 17.159 46.9783 16.5666C47.249 15.7461 46.92 14.9682 45.9476 14.1307C44.8419 13.1783 44.6805 12.7504 44.9492 11.484C45.1911 10.3445 45.0896 9.42776 44.6086 8.4045C43.7632 6.60589 42.3166 5.53693 40.7715 5.56885C40.2515 5.5796 39.6767 5.61118 39.4941 5.63889C39.2119 5.68172 39.1461 5.5628 39.0552 4.84591C38.8543 3.25995 37.4788 1.3189 36.1309 0.719256C35.2786 0.340151 33.9889 0.207791 33.0481 0.402971ZM36.3047 7.97433C35.6286 8.56793 35.5237 9.18858 36.0516 9.4711C36.5227 9.72322 36.3089 9.97249 35.6214 9.97249C35.1435 9.97249 35.0009 10.0637 34.768 10.5184C34.3457 11.3426 34.2259 11.3767 32.9672 11.0329C32.7977 10.9865 32.5823 10.729 32.4888 10.4606C32.3952 10.1922 32.218 9.97249 32.0949 9.97249C31.7709 9.97249 32.083 10.9852 32.5172 11.3431C32.7033 11.4965 32.8555 11.8102 32.8555 12.04C32.8555 12.3151 33.1973 12.8353 33.8545 13.5605C34.9625 14.7831 35.1429 15.3013 34.9868 16.8132L34.8909 17.742L35.5949 17.6428C35.982 17.5884 36.6991 17.4236 37.1882 17.2766C38.3171 16.9378 38.5033 16.5486 38.1616 15.2403C37.8176 13.9226 37.4976 13.5003 36.8409 13.4973C36.5427 13.4958 36.2232 13.4392 36.1309 13.3713C35.8648 13.1758 35.8834 10.8123 36.1512 10.8123C36.491 10.8123 36.7528 10.1742 36.6344 9.63504C36.5637 9.31287 36.6448 8.88455 36.8751 8.36368C37.0663 7.93167 37.2227 7.55004 37.2227 7.51561C37.2227 7.31925 36.8237 7.51863 36.3047 7.97433ZM26.35 10.0906C26.1439 10.1304 25.8356 10.3407 25.6647 10.5579C25.2221 11.1206 23.918 14.4631 23.8265 15.2695C23.7307 16.1134 24.3788 19.3833 24.8334 20.3509C25.0197 20.7472 25.1966 21.0467 25.2268 21.0166C25.2569 20.9864 25.158 20.0953 25.007 19.0364C24.6079 16.2401 24.6376 15.452 25.1869 14.2557C25.6659 13.2121 26.8912 11.8033 27.682 11.3871C28.4681 10.9732 29.576 11.1909 30.1392 11.8695C30.342 12.1138 31.1758 12.0686 31.1758 11.8134C31.1758 11.4966 30.2135 10.5728 29.587 10.2883C28.9403 9.99449 27.3503 9.8974 26.35 10.0906ZM30.0265 13.7472C29.4163 14.4421 29.1623 15.2627 29.1612 16.5433C29.16 17.6038 29.5438 20.0202 29.9251 21.3524C30.1613 22.1779 30.239 22.2653 31.1466 22.7233C31.6797 22.9924 32.7273 23.6984 33.4748 24.292C34.2221 24.8856 35.2767 25.5499 35.8181 25.7681C36.3596 25.9865 37.0362 26.3012 37.3216 26.4679C38.0845 26.9131 38.6939 26.6409 39.4269 25.5277C40.1571 24.419 41.6965 21.023 41.847 20.189C41.956 19.5855 41.9439 19.5675 41.3122 19.392C39.7338 18.9538 38.7439 19.4521 38.4965 20.8095C38.2861 21.9643 37.5752 24.2834 37.3055 24.6951C37.1063 24.9993 36.9035 25.0858 36.4209 25.0729C35.1672 25.0394 35.0169 24.9241 34.6875 23.7426C34.5205 23.1439 34.3427 22.4534 34.2923 22.208L34.2007 21.7619L32.8563 21.8541C31.7242 21.9317 31.5117 21.9058 31.5117 21.6907C31.5117 21.4293 31.9031 21.2402 33.1321 20.9078C33.9528 20.6859 34.0633 20.4816 33.8347 19.609C33.741 19.2514 33.6523 18.1274 33.6379 17.1112C33.6078 15.0189 33.4177 14.581 32.1364 13.6528C31.223 12.9912 30.6685 13.0161 30.0265 13.7472ZM28.8242 24.6986C28.8242 24.8753 32.3128 27.4846 33.2492 28.0083C33.8703 28.3557 34.4698 28.7858 34.5812 28.9644C34.9604 29.5714 35.8646 29.2887 36.3123 28.4232C36.663 27.7449 36.4938 27.5815 34.9557 27.1129C34.3094 26.9158 33.289 26.4833 32.6882 26.1514C31.7637 25.6408 28.8242 24.5355 28.8242 24.6986ZM40.0862 25.4978C39.5416 26.2893 39.4859 26.4334 39.7235 26.4334C40.0434 26.4334 40.594 25.8195 40.7406 25.2996C40.9559 24.5362 40.6931 24.6158 40.0862 25.4978ZM41.7602 25.1864C41.7637 25.6875 41.9496 26.2655 42.1074 26.2655C42.1858 26.2655 42.3252 26.1247 42.4173 25.9527C42.5491 25.7065 42.4969 25.5575 42.1712 25.2516C41.7862 24.8898 41.758 24.8853 41.7602 25.1864ZM43.1904 26.1815C43.2621 26.3662 43.3554 26.7638 43.3977 27.0648C43.44 27.366 43.5524 27.6603 43.6473 27.7191C43.9048 27.8781 43.6317 26.6064 43.3189 26.19C43.0685 25.8564 43.0643 25.8561 43.1904 26.1815ZM40.75 27.1182C40.0385 27.4396 38.7344 28.535 38.7344 28.8112C38.7344 29.0013 39.9031 29.2869 40.6853 29.2879C41.4294 29.2889 42.2617 28.788 42.2617 28.3392C42.2617 28.1351 42.1446 28.158 41.6616 28.4566C40.7999 28.9891 40.6484 28.6723 41.3439 27.7933C42.2308 26.6724 42.0904 26.5127 40.75 27.1182ZM41.9258 29.5548C41.6948 29.6829 41.2035 29.793 40.834 29.7992L40.1621 29.8104L40.9796 30.2159L41.7971 30.6214L42.1079 30.249C42.3551 29.9527 42.5681 29.2346 42.3877 29.3054C42.3647 29.3144 42.1567 29.4266 41.9258 29.5548ZM38.9186 34.2976C38.5797 34.931 38.5205 36.8624 38.7995 38.1912C39.4815 41.4404 41.8302 44.4224 44.9289 45.9736C45.7902 46.4049 46.598 46.7576 46.7236 46.7576C46.8494 46.7576 47.367 46.9128 47.8741 47.1025C48.6612 47.3971 48.9077 47.6044 49.5625 48.5218C49.9842 49.1129 50.3897 49.6338 50.4636 49.6795C50.6667 49.8049 50.3677 47.6472 50.0491 46.6879C49.8546 46.1021 49.4861 45.5617 48.8421 44.9177C47.822 43.8976 47.6233 43.9663 48.0417 45.1945C48.3974 46.2381 48.3922 46.2542 47.7627 46.0743C46.896 45.8266 45.0639 44.4845 43.8819 43.2316C41.8346 41.0613 40.6386 38.9236 39.7608 35.8655C39.4865 34.9098 39.225 34.0908 39.1798 34.0454C39.1345 34.0002 39.0171 34.1136 38.9186 34.2976ZM34.2019 36.0076C33.7853 37.3495 31.0669 44.786 30.4359 46.3105C29.0532 49.6509 27.2719 52.7175 24.8724 55.8883C24.0435 56.9837 23.2527 58.0418 23.1153 58.2396C22.8759 58.5841 22.8795 58.5887 23.1986 58.3475C25.9494 56.2682 28.7135 53.4389 30.2651 51.1137C31.3846 49.4361 33.0846 46.0505 33.6755 44.3221C34.1097 43.0517 34.1238 43.5822 33.7119 45.702C33.2898 47.8753 32.8353 49.1821 31.8003 51.1992C29.7103 55.2726 26.1265 58.7477 21.8955 60.8037C21.3644 61.0617 20.9297 61.3279 20.9297 61.3953C20.9297 61.6064 23.3105 60.8784 24.5951 60.2746C29.1345 58.1404 32.0428 54.7084 33.4286 49.8511C33.6637 49.0274 33.9706 47.6312 34.1109 46.7486C34.4587 44.5576 34.7152 38.9797 34.5622 36.9315L34.4367 35.2518L34.2019 36.0076ZM44.7812 37.8461C44.7812 38.0434 46.0934 39.8031 47.0114 40.8364C47.603 41.5026 47.8094 41.8867 47.8998 42.4897C48.0456 43.4619 48.637 44.0903 50.8034 45.5741C51.6535 46.1563 52.6775 46.9657 53.0787 47.3727L53.8084 48.113L53.8359 46.7109C53.8668 45.1419 53.7562 44.9424 52.6595 44.5907C52.3272 44.4842 51.7059 44.1753 51.2786 43.9045C50.3272 43.301 50.1604 42.7976 50.5491 41.703C50.9002 40.7146 50.9113 40.7825 50.3662 40.5796C48.0296 39.7103 46.9746 39.2169 45.9631 38.5199C45.313 38.0721 44.7812 37.769 44.7812 37.8461ZM51.8702 47.7325C52.9664 48.9458 53.3428 49.6674 53.6471 51.1383L53.9399 52.5526L54.9086 52.7442C56.5344 53.0659 56.8592 53.2735 57.6502 54.4963C58.4055 55.6638 59.2439 56.4998 59.6594 56.4998C60.0486 56.4998 59.9391 56.2714 59.2128 55.5681C58.1005 54.4913 57.9967 54.1819 58.3032 52.8601C58.4463 52.2432 58.5048 51.6852 58.4331 51.6202C58.3614 51.5552 57.9169 51.3769 57.4453 51.2241C56.2918 50.85 55.1807 50.1224 53.773 48.8191C53.1285 48.2225 52.2967 47.5788 51.9246 47.389L51.248 47.0439L51.8702 47.7325ZM34.5451 51.4188C34.189 53.2563 33.2398 55.9368 32.1807 58.0955C30.2634 62.004 28.5936 64.0393 25.788 65.8874C24.9478 66.4411 24.3551 66.9349 24.4559 66.9972C24.5558 67.059 25.3385 67.1608 26.195 67.2233C27.7061 67.3338 27.8829 67.3948 28.9057 68.1563C29.3385 68.4787 30.1082 68.0431 31.3438 66.7772C32.1253 65.9763 32.8383 65.0399 33.2223 64.3104C33.8461 63.1247 34.5602 60.9187 34.7717 59.5233L34.8862 58.7674L34.2908 59.7752C33.7534 60.6846 31.5512 62.9782 31.3799 62.8069C31.3414 62.7684 31.5409 62.4484 31.8233 62.0959C32.9979 60.6292 34.1391 57.5323 34.5133 54.7958C34.7275 53.23 34.9415 50.285 34.8409 50.285C34.799 50.285 34.6658 50.7953 34.5451 51.4188ZM43.6055 58.4155C43.6055 58.6601 44.3548 59.9783 44.9491 60.7792C45.2934 61.2433 46.1601 62.1646 46.875 62.8267C48.1675 64.0238 48.1742 64.0344 48.0612 64.7038C47.9649 65.2733 47.9994 65.4047 48.2849 65.5575C48.7698 65.8169 49.5178 65.7799 49.9532 65.4751C50.4846 65.1028 50.9966 64.0164 50.9936 63.2673C50.9892 62.1972 50.6345 61.936 48.7759 61.6351C46.7273 61.3036 45.2529 60.4276 43.981 58.7867C43.7744 58.5201 43.6055 58.3532 43.6055 58.4155Z" fill="#589AD8"/>
</svg>
