<svg width="20" height="20" viewBox="0 0 20 20" fill="none" xmlns="http://www.w3.org/2000/svg">
<path d="M10.001 -0.000671387C15.524 -0.000671387 20.001 4.47633 20.001 9.99933C20.001 15.5223 15.524 19.9993 10.001 19.9993C8.23377 20.0022 6.49765 19.5345 4.97099 18.6443L0.00499063 19.9993L1.35699 15.0313C0.466084 13.5042 -0.00196181 11.7673 0.000990443 9.99933C0.000990443 4.47633 4.47799 -0.000671387 10.001 -0.000671387ZM6.59299 5.29933L6.39299 5.30733C6.26351 5.31521 6.13697 5.34923 6.02099 5.40733C5.91251 5.46876 5.81349 5.54555 5.72699 5.63533C5.60699 5.74833 5.53899 5.84633 5.46599 5.94133C5.09611 6.42223 4.89696 7.01264 4.89999 7.61933C4.90199 8.10933 5.02999 8.58633 5.22999 9.03233C5.63899 9.93433 6.31199 10.8893 7.19999 11.7743C7.41399 11.9873 7.62399 12.2013 7.84999 12.4003C8.95338 13.3718 10.2682 14.0724 11.69 14.4463L12.258 14.5333C12.443 14.5433 12.628 14.5293 12.814 14.5203C13.1052 14.5053 13.3896 14.4264 13.647 14.2893C13.7779 14.2219 13.9057 14.1485 14.03 14.0693C14.03 14.0693 14.073 14.0413 14.155 13.9793C14.29 13.8793 14.373 13.8083 14.485 13.6913C14.568 13.6053 14.64 13.5043 14.695 13.3893C14.773 13.2263 14.851 12.9153 14.883 12.6563C14.907 12.4583 14.9 12.3503 14.897 12.2833C14.893 12.1763 14.804 12.0653 14.707 12.0183L14.125 11.7573C14.125 11.7573 13.255 11.3783 12.723 11.1363C12.6673 11.112 12.6077 11.0981 12.547 11.0953C12.4786 11.0883 12.4094 11.096 12.3442 11.1179C12.279 11.1398 12.2193 11.1754 12.169 11.2223C12.164 11.2203 12.097 11.2773 11.374 12.1533C11.3325 12.2091 11.2753 12.2512 11.2098 12.2744C11.1443 12.2975 11.0733 12.3007 11.006 12.2833C10.9408 12.2659 10.877 12.2438 10.815 12.2173C10.691 12.1653 10.648 12.1453 10.563 12.1093C9.98906 11.8589 9.45768 11.5205 8.98799 11.1063C8.86199 10.9963 8.74499 10.8763 8.62499 10.7603C8.23158 10.3836 7.88871 9.95733 7.60499 9.49233L7.54599 9.39733C7.50361 9.33349 7.46935 9.26463 7.44399 9.19233C7.40599 9.04533 7.50499 8.92733 7.50499 8.92733C7.50499 8.92733 7.74799 8.66133 7.86099 8.51733C7.97099 8.37733 8.06399 8.24133 8.12399 8.14433C8.24199 7.95433 8.27899 7.75933 8.21699 7.60833C7.93699 6.92433 7.64699 6.24333 7.34899 5.56733C7.28999 5.43333 7.11499 5.33733 6.95599 5.31833C6.90199 5.31233 6.84799 5.30633 6.79399 5.30233C6.6597 5.29566 6.52512 5.29699 6.39099 5.30633L6.59299 5.29933Z" fill="#589AD8"/>
</svg>
